<svg width="24" height="24" viewBox="0 0 24 24" fill="none" xmlns="http://www.w3.org/2000/svg">
  <g clip-path="url(#clip0)">
    <path fill-rule="evenodd" clip-rule="evenodd" d="M6.11296 5.2404C3.34104 6.66853 1.15323 9.07352 0 11.9999C1.88729 16.789 6.54546 20.1817 12 20.1817C14.5799 20.1817 16.9796 19.4242 18.9925 18.1199L16.268 15.3955C15.2684 16.65 13.7276 17.4544 12 17.4544C8.98911 17.4544 6.54546 15.0108 6.54546 11.9999C6.54546 10.2723 7.34993 8.7315 8.60444 7.73188L6.11296 5.2404ZM10.164 9.29145C9.29735 9.8806 8.72731 10.8746 8.72731 11.9999C8.72731 13.8054 10.1946 15.2726 12 15.2726C13.1254 15.2726 14.1193 14.7026 14.7085 13.8359L10.164 9.29145ZM12.4604 8.75942L15.2405 11.5395C15.0375 10.1019 13.898 8.96242 12.4604 8.75942ZM17.2355 13.5345C17.3781 13.0476 17.4546 12.5327 17.4546 11.9999C17.4546 8.989 15.0109 6.54534 12 6.54534C11.4673 6.54534 10.9523 6.62185 10.4654 6.76446L8.11564 4.41465C9.34124 4.02712 10.6461 3.81808 12 3.81808C17.46 3.81808 22.1128 7.21078 24.0001 11.9999C23.2554 13.8895 22.0802 15.5617 20.5949 16.8939L17.2355 13.5345Z" fill="#2D2D2D"/>
    <rect x="2.48755" y="1.61499" width="27.25" height="2" transform="rotate(45 2.48755 1.61499)" fill="#2D2D2D"/>
  </g>
  <defs>
    <clipPath id="clip0">
      <rect width="24" height="24" fill="white"/>
    </clipPath>
  </defs>
</svg>
