<svg width="24" height="24" viewBox="0 0 24 24" fill="none" xmlns="http://www.w3.org/2000/svg">
  <g clip-path="url(#clip0)">
    <path d="M12 8.72722C10.1946 8.72722 8.72731 10.1945 8.72731 11.9999C8.72731 13.8054 10.1946 15.2727 12 15.2727C13.8055 15.2727 15.2728 13.8054 15.2728 11.9999C15.2728 10.1945 13.8055 8.72722 12 8.72722Z" fill="#2D2D2D"/>
    <path d="M12 3.81812C6.54546 3.81812 1.88729 7.21081 0 11.9999C1.88729 16.789 6.54546 20.1818 12 20.1818C17.46 20.1818 22.1128 16.789 24.0001 11.9999C22.1128 7.21081 17.46 3.81812 12 3.81812ZM12 17.4545C8.98911 17.4545 6.54546 15.0108 6.54546 11.9999C6.54546 8.98898 8.98911 6.54537 12 6.54537C15.0109 6.54537 17.4546 8.98903 17.4546 11.9999C17.4546 15.0108 15.0109 17.4545 12 17.4545Z" fill="#2D2D2D"/>
  </g>
  <defs>
    <clipPath id="clip0">
      <rect width="24" height="24" fill="white"/>
    </clipPath>
  </defs>
</svg>
