<svg width="40" height="38" viewBox="0 0 40 38" fill="none" xmlns="http://www.w3.org/2000/svg">
  <rect width="40" height="38" rx="8" fill="white"/>
  <path d="M13.3189 21.5035L12.4835 24.6222L9.43011 24.6868C8.51759 22.9943 8 21.0578 8 19C8 17.0101 8.48394 15.1336 9.34175 13.4813H9.34241L12.0608 13.9797L13.2516 16.6817C13.0024 17.4084 12.8665 18.1884 12.8665 19C12.8666 19.8809 13.0262 20.7249 13.3189 21.5035Z" fill="#FBBB00"/>
  <path d="M31.7903 16.7582C31.9282 17.4841 32 18.2338 32 19C32 19.8591 31.9097 20.6971 31.7376 21.5055C31.1535 24.2563 29.6271 26.6582 27.5126 28.358L27.5119 28.3573L24.088 28.1826L23.6034 25.1576C25.0065 24.3347 26.103 23.047 26.6805 21.5055H20.2638V16.7582H26.7742H31.7903Z" fill="#518EF8"/>
  <path d="M27.5119 28.3574L27.5126 28.358C25.4561 30.011 22.8438 31 20 31C15.4301 31 11.457 28.4457 9.43015 24.6868L13.3189 21.5035C14.3323 24.2081 16.9413 26.1334 20 26.1334C21.3147 26.1334 22.5464 25.778 23.6033 25.1576L27.5119 28.3574Z" fill="#28B446"/>
  <path d="M27.6595 9.76262L23.7721 12.9453C22.6782 12.2615 21.3852 11.8666 20 11.8666C16.8721 11.8666 14.2143 13.8802 13.2516 16.6818L9.34239 13.4813H9.34174C11.3389 9.63077 15.3622 7 20 7C22.9116 7 25.5813 8.03716 27.6595 9.76262Z" fill="#F14336"/>
</svg>
